<svg xmlns="http://www.w3.org/2000/svg" width="24" height="24" viewBox="0 0 48 48"><g><path fill="#4285F4" d="M24 9.5c3.54 0 6.7 1.22 9.19 3.23l6.86-6.86C36.68 2.7 30.77 0 24 0 14.82 0 6.73 5.8 2.69 14.09l7.99 6.2C12.13 13.41 17.57 9.5 24 9.5z"/><path fill="#34A853" d="M46.1 24.55c0-1.64-.15-3.22-.42-4.74H24v9.01h12.42c-.54 2.9-2.18 5.36-4.65 7.01l7.19 5.59C43.99 37.13 46.1 31.36 46.1 24.55z"/><path fill="#FBBC05" d="M10.68 28.29c-1.01-2.99-1.01-6.21 0-9.2l-7.99-6.2C.7 17.23 0 20.53 0 24c0 3.47.7 6.77 1.97 9.91l7.99-6.2z"/><path fill="#EA4335" d="M24 48c6.48 0 11.93-2.14 15.9-5.82l-7.19-5.59c-2.01 1.35-4.59 2.16-8.71 2.16-6.43 0-11.87-3.91-13.32-9.29l-7.99 6.2C6.73 42.2 14.82 48 24 48z"/><path fill="none" d="M0 0h48v48H0z"/></g></svg> 